<svg xmlns="http://www.w3.org/2000/svg" xml:space="preserve" fill-rule="evenodd" clip-rule="evenodd" viewBox="0 0 440 440">
  <circle cx="220" cy="220" r="220" fill="#cac9c8"/>
  <path fill="none" stroke="#c3788a" stroke-width="2" d="M104.5 254c1.6-23.7 7.5-49.5 16.8-71.5a143.6 143.6 0 0 1 29.6-46.8c.2 0 .3 0 .2.2a170 170 0 0 0-34.8 63.3 188.5 188.5 0 0 0-10.3 57.7"/>
  <path fill="none" stroke="#76797d" stroke-width="2" d="M106 256.9v6.1c0 .2.1.5.4.8l12.1 10.6c.8.7 1.8.6 2.4 0 11.8-13 24.9-17.7 42.6-12.6.3 0 .6 0 .6-.4.4-2.7 0-5.3-1.3-7.6"/>
  <path fill="none" stroke="#d6b679" stroke-width="2" d="M162.8 253.8c-.4-21.2 2-40.8 7.2-58.8 5.4-18.7 11.9-37 19.2-55 1.9-4.5 3.9-9 6-13.3"/>
  <path fill="none" stroke="#d6b679" stroke-width="2" d="M196 127.3a564.7 564.7 0 0 0-23.4 64.2 179 179 0 0 0-7.5 63"/>
  <path fill="none" stroke="#76797d" stroke-width="2" d="M165.1 254.6c-.2 2.8 0 5.7.7 8.5 0 .3.2.6.5.7a57.3 57.3 0 0 1 16.5 11c1.8 1.6 3.3 1.7 4.6.2a40.4 40.4 0 0 1 25.6-13.7 1 1 0 0 1 1 1v92.3m8.5-.5-.5-89.8a.4.4 0 0 1 .5-.4c5 1.2 11.2 7.2 14.8 10.8a2 2 0 0 0 2.6.2c1.8-1.5 3.8-3.1 5.8-5a48 48 0 0 1 37.5-11.3c.3 0 .6-.1.6-.4a13 13 0 0 0-.8-7"/>
  <path fill="none" stroke="#78ada5" stroke-width="2" d="M283 251.2a304.4 304.4 0 0 0-14.8-84 168.9 168.9 0 0 0-30.9-54.9c-4.3-5-8.3-10.1-13.3-14.5-1.6-1.4 1.6-.2 2.3.5"/>
  <path fill="none" stroke="#69abb1" stroke-width="2" d="M226.3 98.3c2.7 3.3 5.3 6.5 8.3 9.9a179 179 0 0 1 33 54.3c1.6 3.8 3.5 7.6 5.8 11.6 13.5 23.4 21.4 53.6 25.8 80.1.1.5.4.7 0 1.3"/>
  <path fill="none" stroke="#76797d" stroke-width="2" d="m299.2 255.5-1-.5"/>
  <path fill="none" stroke="#73aba2" stroke-width="2" d="M298.3 255a350 350 0 0 0-17-62.8c-.8-2.3-9.6-21.6-11-22-.2 0-.2.1-.2.5a347 347 0 0 1 14.4 80.8"/>
  <path fill="none" stroke="#76797d" stroke-width="2" d="m284.5 251.5 1 7c0 .3.2.6.5.7 10.6 3 18 10.2 25.4 16.9 1 1 2 .9 3-.2 18.6-19.8 46.4-25.9 66.4-3.6 2.2 2.5 5 2.2 5.2-1.5 1-20-.7-40-7.3-58.9a191.6 191.6 0 0 0-78.1-100 152 152 0 0 0-77.3-22.7.5.5 0 0 1-.5-.5c0-3.5 1.1-13.6-3.2-15a3.9 3.9 0 0 0-3.8.7c-1 .7-1.4 1.8-1.3 3.1l.7 11.3c0 .2-.3.3-.6.3-5-.1-8.6 0-10.9.4-70.8 11-125.6 64-145 132a138.4 138.4 0 0 0-5.3 48.8c.2 3.8 1.6 4.4 4 1.8a39.4 39.4 0 0 1 47-9.9.4.4 0 0 0 .4-.3c.3-2.6.2-5.2-.3-7.8"/>
  <path fill="none" stroke="#696c72" stroke-width="2" d="M222.5 354.1v11.7c0 1-.5 1.7-1.2 2a10 10 0 0 1-5.3.2c-1-.2-1.6-1-1.7-2l-.3-11.4"/>
  <path fill="#a73963" fill-rule="nonzero" d="M235 20.8c.2-.7.4-.7.6 0l5.7 22c.5 1.8.4 3.5 0 5-1 2.8-3 4-5.8 3.5-5.1-1-6.4-5.2-5.3-9.9l4.8-20.6Z"/>
  <path fill="#a54266" fill-rule="nonzero" d="M293.4 48c.3-1.2.6-1.2 1 0l4.6 18c1.6 6.3-6.7 8.3-9.5 4-.9-1.3-1.1-2.9-.6-4.8l4.5-17.3Z"/>
  <path fill="#2c343e" fill-rule="nonzero" d="m284.5 251.5 13.8 3.5 1 .5 13.2 11.7c.2.2.5.2.7 0l9.8-8.2 1-.8h.7a45 45 0 0 1 16.5-6.6c.4 0 .8-.4 1-.6h1c13.8-.7 24.3.6 35.5 9 .2.2.4.1.4-.2-.6-62.1-42.2-125.4-98.1-150.5-13.5-6-29.1-10.4-47-13a51.5 51.5 0 0 0-15.9-1c-5 .1-9.7.7-14.3 1.7a138.6 138.6 0 0 0-45.8 14.5 177 177 0 0 0-97.6 148.3c0 .3 0 .3.3.1a44.8 44.8 0 0 1 43.8-5.8 27.5 27.5 0 0 1 .3 7.8.4.4 0 0 1-.5.3c-18-7.2-33.6-4-46.9 10-2.4 2.5-3.8 1.9-4-1.9-1.2-16.8.7-32.3 5.4-48.7 19.3-68.1 74-121 145-132.1 2.2-.4 5.8-.5 10.8-.4.3 0 .6-.1.6-.3l-.7-11.3c-.1-1.3.3-2.4 1.3-3.1 1.2-1 2.5-1.2 3.8-.7 4.3 1.4 3.1 11.5 3.2 15 0 .3.2.5.5.5a152 152 0 0 1 77.3 22.7 191.4 191.4 0 0 1 78 100c6.7 18.8 8.4 38.9 7.4 58.9-.2 3.7-3 4-5.2 1.5-20-22.3-47.8-16.2-66.4 3.6-1 1-2 1.1-3 .2-7.4-6.7-14.8-13.9-25.4-17a.8.8 0 0 1-.6-.6l-1-7Z"/>
  <path fill="#ddac44" fill-rule="nonzero" d="M321 89.7c3.7 12-10 10-7.7 2.1a108 108 0 0 0 3-12.5c.2-1.3 1.2-1.3 1.6-.1l3 10.5Zm-213.1 9c-1.6-.6-2.1-1.7-1.7-3.2l4.1-15.2c.4-1.1.7-1.1 1 0 1 4 9.2 23.6-3.4 18.4Z"/>
  <path fill="#309b8e" fill-rule="nonzero" d="M234 96.3c-1.9.8-3.8.9-5.8.1-.2 0-.5 0-.6.3a3 3 0 0 1-1.3 1.6c-.7-.7-4-1.9-2.3-.5 5 4.4 9 9.6 13.3 14.5a168.9 168.9 0 0 1 31 55 304.4 304.4 0 0 1 14.7 84 66 66 0 0 0-23.9 2.4c-7 2-14.1 7.6-20.4 11.5-.3.2-.6.2-.8 0l-13.4-9.6a854 854 0 0 0-.3-79.6c.7-18.7.6-34-.4-45.5a363 363 0 0 0-5.7-35.2c5.2-.6 10.5-.2 16 1Zm-8 14.3c5.7 17 9 27.5 10 31.5 5.3 22.6 10 45.5 14 68.4 2.5 14.2 3.9 28.4 4.2 42.8 0 .3.1.6.3.8.4.3.6 0 .6-.6 0-16.8-1.8-34-5.4-51.7-3.9-19.1-7.7-38.2-12.4-57.2-2.8-11.4-7.4-23.2-11-34.9-.1-.2-.3-.3-.4-.2h-.1c-.3.2.2.9.2 1.1Z"/>
  <path fill="#ecc977" fill-rule="nonzero" d="M218.1 95.3a363 363 0 0 1 5.7 35.2c1 11.6 1.1 26.8.4 45.5-1-12.2-1.2-24.4-.7-36.7.2-2.7-.8-4.6-2-6.9a1 1 0 0 1-.2-.9c.7-5.8.3-11.6-1.2-17.2-.4-1.5-.5-3-.6-4.5 0-.3-.2-.7-.5-.8-.9-.5-1.7-.5-2.5 0-.2 0-.3.3-.3.8l-2.2 16.7-.7-.5c.8-8 1.8-16 3.1-24 .2-1.2.2-3 .1-5.7 0-.4-.2-.4-.4-.2a105.7 105.7 0 0 0-20 31.2l-.8-.5a202.7 202.7 0 0 1 17.5-29.5c0-.2 0-.4-.2-.5-.7-.2-5 2.5-6.4 2.8-.3 0-.6.2-.9.4a216.6 216.6 0 0 0-25.5 27.8 326.4 326.4 0 0 0-22.4 36.4 204 204 0 0 0-16.4 41c-3 10-5.2 21.7-7.5 32.6a19 19 0 0 1-1.8 5.2c0 .1-.3.2-.5 0-.4-.6 3-19.8 3.5-20.3.3-.3.5-.6.5-.8l5.3-18.6a266.5 266.5 0 0 1 36.6-74c6.4-9.6 12.6-15.7 23.9-27 .2-.1.2-.5 0-.6-.4-.4-1-.4-1.5 0a15.7 15.7 0 0 1-7.8 3 62 62 0 0 1 11-6c.4-.2.6-.4.7-.7l.3-1c4.7-1 9.5-1.6 14.4-1.7Z"/>
  <path fill="#ecae35" fill-rule="nonzero" d="M213.3 126c-1.9 9.6-4.4 21.4-7.5 35.3-.7 3.2-1.3 6.6-1.7 10.2-1 10-3.1 19.8-4 29.8-.4 4.8-1.8 9.6 5.5 8.9.3 0 .5-.3.5-.6.2-3.5.3-6.9-.3-10.6-3.3-20 .6-36.7 5.7-56.8 1.2-4.5 2-9.7 2.5-15.7l2.2-16.7c0-.5.1-.8.3-.9.8-.4 1.6-.4 2.5 0 .3.2.4.6.5 1 .1 1.4.2 2.9.6 4.4 1.5 5.6 2 11.4 1.2 17.2l.1 1c1.3 2.2 2.3 4 2.1 6.8-.5 12.3-.3 24.5.7 36.7a966.3 966.3 0 0 1 .3 79.6l-8.8-1.9c.4-21.3-.2-42.6.9-64 .8-16.7.2-31.8 1.7-50 0-.5-.2-1-.6-1.2-.2-.1-.4 0-.4.2v.1c0 7.1-.7 14.1-2.4 21-.6 2.7-1 5.2-1 7.5a586 586 0 0 0 0 28c.9 11.2.5 23.4.5 33.6 0 8.3-.3 16.5-1.2 24.8-10.9.7-19.5 6-28.3 12-.2.2-.5.2-.8 0a91 91 0 0 0-19-11.1 179 179 0 0 1 7.5-63 564.7 564.7 0 0 1 23.4-64.3 108 108 0 0 1 20.1-31.2c.2-.2.4-.2.4.2v5.6c-1.4 8-2.4 16-3.2 24.1Zm-5.4 16a631.3 631.3 0 0 0-27 108.2c-.3 1.2-3 9.5-1.5 9.5.3 0 .6-.2.6-.5 2.6-11.8 4.4-25.3 6.6-35.6 6-27.8 13.2-52.2 22.3-82.3 0-.4 0-.5-.3-.3-.4.3-.6.6-.7 1Z"/>
  <path fill="#1297a5" fill-rule="nonzero" d="M234 96.3c17.9 2.6 33.5 7 47 13 55.9 25 97.5 88.4 98 150.5 0 .3 0 .4-.3.2-11.2-8.4-21.7-9.7-35.4-9a270.3 270.3 0 0 0-53.1-114c-3.8-4.7-9.9-10.3-18.4-16.8-6.3-5-13-9.9-19.7-14.3h-.3v.1c0 .1 0 .3.2.4l19.5 14.1c8.3 6.5 14.6 12.4 18.8 17.7 25.6 31.6 43.9 73 52 112.8-.3.2-.7.6-1.1.6a45 45 0 0 0-17 6.7h-.2c-7-35.8-19.6-71.4-38.2-102.8-13.6-23-27.6-41.2-50.8-55.3-.2 0-3.3-2.5-3.2-1.7 0 .1 0 .2.2.3l2.8 2a125 125 0 0 1 37.5 35.1A319.6 319.6 0 0 1 323 259l-9.8 8.2c-.2.2-.5.2-.7 0l-13.3-11.7c.4-.6.1-.8 0-1.3-4.4-26.5-12.3-56.7-25.8-80.1-2.3-4-4.2-7.8-5.8-11.6-8.5-20.2-18-37.9-33-54.3-3-3.4-5.6-6.6-8.3-10a3 3 0 0 0 1.3-1.5c.1-.3.4-.4.6-.3 2 .8 4 .7 5.9-.2Zm63.8 38.5c-.8-.9-.5-2.9-1-3-.2 0-.5.2-.6.5-.6 3.5 2.5 3.7 1.6 2.5Zm.4-2.4c-.4.2.6 2 .6 2.8 0 .4 0 .7.2.9 1.4 2 0-2.8-.1-3.4-.2-.3-.4-.4-.7-.3Zm27.1 24.2c5.4 1.6-3.1-8.6-3.5-8.6-.3 0-.5.2-.5.5 0 2.6 1.1 7.3 4 8.1Zm28 79.1c3 1.3.6-2.1.5-2.7a183 183 0 0 0-21.6-55.5c-.2-.2-.5-.3-.7-.2-.9.6.4 1.6.6 1.9 9.3 15.7 18.7 37.1 20.3 55.4 0 .5.4 1 .9 1.1Z"/>
  <path fill="#ecae35" fill-rule="nonzero" d="M195.3 126.8a180 180 0 0 0-6 13.2c-7.4 18-13.9 36.3-19.3 55-5.2 18-7.6 37.6-7.2 58.8-17.6-4.1-28.4 1.4-42.9 10.5-.2.2-.6.1-.8 0l-5.8-4.5a236 236 0 0 1 10.4-51.3c12-37.8 33.7-81.4 68-103.8 2.9-.3 5.5-1.3 7.8-3 .6-.4 1-.4 1.5 0 .2.1.2.5 0 .7-11.3 11.2-17.5 17.3-24 26.8a266.5 266.5 0 0 0-41.8 92.7c0 .2-.2.5-.5.8a163.6 163.6 0 0 0-3.5 20.3c.2.2.4.1.5 0h.1a19 19 0 0 0 1.7-5.3c2.3-10.8 4.6-22.5 7.5-32.5a204 204 0 0 1 16.4-41 307 307 0 0 1 22.4-36.4c6-8.2 14.6-17.5 25.5-27.8l.9-.4c1.5-.3 5.7-3 6.4-2.8.2 0 .3.3.2.5a202.7 202.7 0 0 0-17.5 29.5Z"/>
  <path fill="#c73158" fill-rule="nonzero" d="m203.8 97-.4 1c0 .3-.3.5-.7.6a66.3 66.3 0 0 0-11 6.1c-34.3 22.4-56 66-68 103.8a238.3 238.3 0 0 0-10.4 51.3c-2.5-1.6-5-2.5-7.3-2.9a191 191 0 0 1 10.3-57.7 169.7 169.7 0 0 1 34.6-63.5 143.6 143.6 0 0 0-29.6 46.8c-9.3 22-15.2 47.8-16.8 71.6a44.8 44.8 0 0 0-43.8 5.8c-.2.2-.4.2-.3-.2A177 177 0 0 1 158 111.5c13.3-7.1 28.5-12 45.8-14.5ZM101 184.8A384 384 0 0 0 77.5 233c-.7 1.6-.4 2.3.7 2 .3 0 .6-.2.7-.5a266 266 0 0 1 63.9-100c4.2-4 10.4-8.8 15.4-13.6.3-.3.3-.5-.1-.6-1.1-.2-14.6 12.4-16.4 14a236.3 236.3 0 0 0-40.6 50.5Zm-7.5 29c.3 0 .5-.5.5-1.2 0-.8-.3-1.3-.6-1.3s-.5.6-.5 1.3c0 .7.3 1.3.6 1.3ZM89.2 229c-.2.3-2.6 4.6-1.2 4.4.3 0 .5-.3.6-.6.1-.7 1.2-3.4 1.2-3.9-.1-.5-.3-.5-.6.1Z"/>
  <path fill="#36c4cb" fill-rule="nonzero" d="m235 100.2-.3.5-2.7-1.9a.5.5 0 0 1-.2-.3c-.1-.8 3 1.6 3.2 1.7Z"/>
  <path fill="#adfafb" fill-rule="nonzero" d="M235 100.2c23.2 14.1 37.2 32.2 50.8 55.3 18.6 31.4 31.2 67 38.2 102.7l-1 .8a319.6 319.6 0 0 0-50.7-123 125 125 0 0 0-37.6-35.3l.3-.5Z"/>
  <path fill="#36c4cb" fill-rule="nonzero" d="m271.8 120.3-.3.2-19.5-14-.3-.5.1-.2h.3a232 232 0 0 1 19.7 14.5Z"/>
  <path fill="#95e1cd" fill-rule="nonzero" d="M226 110.6c0-.2-.5-.9-.2-1.1.2-.1.4 0 .5.1v.1c3.6 11.7 8.2 23.5 11 35 4.7 18.9 8.5 38 12.4 57.2a255 255 0 0 1 5.4 51.6c0 .7-.2.9-.6.6a1 1 0 0 1-.3-.8c-.3-14.4-1.7-28.6-4.2-42.8-4-23-8.7-45.8-14-68.4-1-4-4.3-14.5-10-31.5Z"/>
  <path fill="#f4b7d1" fill-rule="nonzero" d="M77.5 233a384 384 0 0 1 23.6-48.2 236.3 236.3 0 0 1 40.6-50.5c1.8-1.6 15.3-14.2 16.4-14 .4 0 .4.3 0 .6-4.8 4.8-11 9.5-15.3 13.6a266.4 266.4 0 0 0-63.9 100 1 1 0 0 1-.7.6c-1.1.2-1.4-.5-.7-2.1Z"/>
  <path fill="#adfafb" fill-rule="nonzero" d="M271.8 120.3c8.5 6.4 14.6 12 18.4 16.8a270.3 270.3 0 0 1 53 113.9h-1a270.4 270.4 0 0 0-51.9-112.8 116.5 116.5 0 0 0-18.8-17.7l.3-.3Z"/>
  <path fill="#e7cdaa" fill-rule="nonzero" d="m213.3 126 .7.5c-.5 6-1.3 11.2-2.5 15.8-5 20-9 36.8-5.7 56.7.6 3.7.5 7 .3 10.6 0 .3-.2.6-.5.6-7.3.7-5.9-4.1-5.5-8.9.9-10 3-19.7 4-29.8.4-3.6 1-7 1.7-10.2 3.1-14 5.6-25.7 7.5-35.3Z"/>
  <path fill="#6c6b6d" d="M345 130.4c0 1.3-.7 2.4-1.5 2.4s-1.5-1.1-1.5-2.5c0-1.3.7-2.4 1.6-2.4.8 0 1.4 1.1 1.4 2.5Z"/>
  <path fill="#95e1cd" fill-rule="nonzero" d="M296.9 131.8c.4.1.1 2.1.9 3 1 1.2-2.2 1-1.6-2.5.1-.3.4-.5.6-.5Z"/>
  <path fill="#36c4cb" fill-rule="nonzero" d="M298.8 135.2c0-.7-1-2.6-.6-2.8.3-.1.5 0 .7.3.2.6 1.5 5.4.1 3.4l-.2-.9Z"/>
  <path fill="#e0bc8b" fill-rule="nonzero" d="M215.8 253.7h-2.6c.9-8.3 1.3-16.5 1.3-24.8 0-10.2.3-22.4-.5-33.6-.3-3.3-.3-12.7 0-28 0-2.3.3-4.8 1-7.5a83.6 83.6 0 0 0 2.3-21c0-.3.2-.4.4-.4.4.3.7.8.6 1.3-1.5 18.3-.9 33.3-1.7 50-1 21.4-.5 42.7-.8 64Z"/>
  <path fill="#e7d6bc" fill-rule="nonzero" d="M207.9 142c.1-.4.3-.7.7-1 .3-.2.4 0 .3.3a964.1 964.1 0 0 0-22.3 82.3c-2.2 10.3-4 23.8-6.6 35.6 0 .3-.3.5-.6.5-1.6 0 1.3-8.3 1.4-9.5 5-36.8 15.8-73 27-108.3Z"/>
  <path fill="#95e1cd" fill-rule="nonzero" d="M325.3 156.6c-2.9-.8-4-5.5-4-8 0-.4.2-.6.5-.6.4 0 9 10.2 3.5 8.6Z"/>
  <path fill="#279787" fill-rule="nonzero" d="m298.3 255-13.8-3.5a347 347 0 0 0-14.4-80.8c0-.4 0-.5.3-.4 1.3.3 10.1 19.6 11 21.9a350 350 0 0 1 16.9 62.8Z"/>
  <path fill="#93eae8" fill-rule="nonzero" d="M353.3 235.7c-.5-.2-.8-.6-.9-1.1-1.6-18.3-11-39.7-20.3-55.4-.2-.3-1.5-1.3-.6-1.9.2-.1.5 0 .7.2a183 183 0 0 1 21.6 55.5c.1.6 2.4 4-.6 2.7Z"/>
  <path fill="#f4b7d1" d="M94 212.6c0 .7-.1 1.2-.4 1.3-.3 0-.6-.6-.6-1.3 0-.7.2-1.3.5-1.3s.5.5.5 1.3Z"/>
  <path fill="#f4b7d1" fill-rule="nonzero" d="M89.2 229c.3-.7.5-.7.6-.2 0 .5-1 3.2-1.2 4-.1.2-.3.5-.6.5-1.4.2 1-4 1.2-4.4Z"/>
  <path fill="#2c343e" fill-rule="nonzero" d="M283 251.2a13 13 0 0 1 .8 7c0 .3-.3.5-.6.4a48 48 0 0 0-37.5 11.4l-5.8 4.9a2 2 0 0 1-2.6-.2c-3.7-3.6-9.8-9.6-14.8-10.8-.2 0-.4.1-.5.4l.5 89.8v11.7c0 1-.5 1.7-1.2 2a10 10 0 0 1-5.3.2c-1-.2-1.6-1-1.7-2l-.3-11.4v-92.4a1 1 0 0 0-1-.9 40.4 40.4 0 0 0-25.6 13.7c-1.3 1.5-2.8 1.4-4.6-.3a57.3 57.3 0 0 0-16.5-10.9 1 1 0 0 1-.5-.7c-.7-2.8-.9-5.7-.7-8.5 7 3 13.3 6.7 19 11.1.3.2.6.2.8 0 8.8-6 17.4-11.3 28.3-12h2.6l8.7 1.9 13.4 9.6c.2.2.5.2.8 0 6.3-4 13.4-9.4 20.4-11.5a66.8 66.8 0 0 1 23.9-2.5Zm-120.2 2.6c1.3 2.3 1.7 4.9 1.3 7.6 0 .3-.3.5-.6.4-17.7-5.1-30.8-.3-42.6 12.6-.6.6-1.6.7-2.4 0l-12-10.6c-.4-.3-.6-.6-.6-.8l.1-6.1c2.4.4 4.8 1.3 7.3 2.9l5.8 4.5c.2.1.6.2.8 0 14.5-9 25.3-14.6 43-10.5Z"/>
  <path fill="#ecae35" fill-rule="nonzero" d="M163.7 264c.3.2.5.5.5.9-.4 9.6-.9 19.3-1.6 29a159 159 0 0 0-.6 21c.3 3.9 4.1 9.6 3.6 13.9-1.2 10.5-17 8.4-15.3-3 .8-5.4 3.1-18.1 7-38.1.2-1.4 0-3.9.6-5.6l.6-2.2c.8-5.3 2.3-10.2 3.4-15.3.2-1 .8-1.2 1.8-.6Z"/>
  <path fill="#b2355b" fill-rule="nonzero" d="M296.6 309.2c3.3 14-16.6 14.3-16.4 2 .2-8.2 3.2-17.8 4.7-26a86.1 86.1 0 0 0 1.7-17.7l10 41.7Z"/>
  <path fill="#ae3962" fill-rule="nonzero" d="M259.6 312.2c-6.3 5.5-14-.5-12-8.4a573.1 573.1 0 0 0 7-33.5c1.2 12.6 5.1 24.5 6.9 37 .2 2-.4 3.6-1.9 4.9Z"/>
  <path fill="#e8a930" fill-rule="nonzero" d="M166.5 303.5c2-12.3 2.7-18.4.7-28.2 0-.6 0-1 .5-1.3.3-.1.5 0 .6.2 4 10.3 5.1 20.4 7.7 30.7 1.8 7.7 2.3 13-7.9 12.3-1.6-.2-2.4-1-2.3-2.7.3-3.6 0-7.3.7-11Z"/>
  <path fill="#3ca076" fill-rule="nonzero" d="M101 310.3c-2.9-2.2-2.2-5.5-1.4-9.2 1.4-7.4 3.3-14.7 4.8-22a449.2 449.2 0 0 1 6.5 23c1.4 6-4.3 12.5-10 8.2Z"/>
  <path fill="#a73963" fill-rule="nonzero" d="M342 307.5c2.4 9.3-14.2 10.5-12.5-.3a431.7 431.7 0 0 1 6.1-26.5c2 9 4.2 17.9 6.5 26.8Z"/>
</svg>
