<svg xmlns="http://www.w3.org/2000/svg" xml:space="preserve" viewBox="0 0 440 440">
  <path fill="#ecae35" d="m206 96.2 13-1.2c2 9 2.8 16.5 3 18 1 9 3.2 23.2 3 26 1 11 .8 22 0 37 1.2 26.5.5 53-.5 79.6 0 0-30.8 4.1-39.6 10.1-.2.2-.5.1-.8 0-34.1-12.7-63.9-.3-64.1-.3l-6.7-5.6a236 236 0 0 1 10.4-51.3c12-37.8 33.7-81.4 68-103.8 5.3-3.5 8-6.5 14.3-8.5Z"/>
  <path fill="#279787" d="M300 256s-32.2-2.3-40 0c-7 2-21.8 11.6-22 11.4l-13.5-11.8c1.1-26.5 1-53-.3-79.6.7-18.7.6-34-.4-45.5a363 363 0 0 0-5.7-35.2c5.2-.6 10.5-.2 16 1h-.1c-1.9.8-3.8.9-5.8.1-.2 0-.5 0-.6.3-.2.7 36.4 41.3 41.4 59.3 20 18 34.7 76 31 100Z"/>
  <path fill="#1297a5" d="M234 96.3c24 1.7 44 8.7 59 16.7 80 52 88 119 88 149-27-9-46-8-68 7l-13.8-13.5c.4-.6.1-.8 0-1.3-4.4-26.5-12.3-56.7-25.8-80.1-2.3-4-4.2-7.8-5.8-11.6-8.5-20.2-18-37.9-33-54.3-3-3.4-5.6-6.6-8.3-10a3 3 0 0 0 1.3-1.5c.1-.3.4-.4.6-.3 2 .8 4 .7 5.9-.2l-.1.1Z"/>
  <path fill="#c73158" d="m203.8 97-.4 1c0 .3-1 .9-1.4 1a58 58 0 0 0-10.3 5.7c-34.3 22.4-56 66-68 103.8a238.3 238.3 0 0 0-10.4 51.3c-2.5-1.6-39.8-7.3-52.3 2.2-.2.2-3.2-3.7-3-6 5-69 48-121.5 99-148 14.2-7.4 29.5-8.5 46.8-11Z"/>
  <path fill="#eee" opacity="0.5" d="M207.9 142c.1-.4.3-.7.7-1 .3-.2.4 0 .3.3-8.6 27-16 54.6-22.3 82.3-2.2 10.3-4 23.8-6.6 35.6 0 .3-.3.5-.6.5-1.6 0 1.3-8.3 1.4-9.5 5-36.8 15.8-73 27-108.3l.1.1Zm27.1-41.8c23.2 14.1 37.2 32.2 50.8 55.3 18.6 31.4 31.2 67 38.2 102.7l-1 .8a319 319 0 0 0-50.7-123 125 125 0 0 0-37.6-35.3l.3-.5ZM104.3 256.9l-.1 1 2.5-.3v-.7c.5-19.6 4-39 10.3-57.5 7-23.2 18.7-44.7 34.7-63v-.2c.3-.4.2-.7 0-.8 0-.2-.3-.5-.8-.5h-.3l-.2.3a144.4 144.4 0 0 0-29.8 47c-9.3 22-14.7 51-16.3 74.7ZM174 197c9-38 28-78 38.8-99.7 0-.2 0-.4-.2-.5-.7-.2-5 2.5-6.4 2.8-.3 0-.6.2-.9.4a216.5 216.5 0 0 0-25.5 27.8 326.3 326.3 0 0 0-22.4 36.4 204 204 0 0 0-16.4 41c-3 10-5.2 21.7-7.5 32.6a19 19 0 0 1-1.8 5.2c0 .1-.3.2-.5 0-.4-.6 3-19.8 3.5-20.3.3-.3.5-.6.5-.8l5.3-18.6a266.5 266.5 0 0 1 36.6-74c6.4-9.6 12.6-15.7 23.9-27 .2-.1.2-.5 0-.6-.4-.4-1-.4-1.5 0a16 16 0 0 1-7.8 3 62 62 0 0 1 11-6c.4-.2.6-.4.7-.7l.3-1c4.7-1 9.5-1.6 14.4-1.7a363 363 0 0 1 5.7 35.2c1 11.6 1.1 26.8.4 45.5-1-12.2-1.2-24.4-.7-36.7.2-2.7-.8-4.6-2-6.9a1 1 0 0 1-.2-.9c.7-5.8.3-11.6-1.2-17.2-.4-1.5-.5-3-.6-4.5 0-.3-.2-.7-.5-.8-.9-.5-1.7-.5-2.5 0-.2 0-.3.3-.3.8l-2.2 16.7-.7-.5c.8-8 1.8-16 3.1-24 .2-1.2.2-3 .1-5.7 0-.4-.2-.4-.4-.2-7 7.5-48.1 107.9-51 158.4 0 .7-2.3 3.5-2.1-.5.7-16 7.4-41.9 11-57Zm96.3-26.4 2.2 4c13.5 23.3 21.3 53.4 25.7 79.8l.1.4v.1l.1.1 1.6 1c.5-.7.5-1.1.3-1.6l-.1-.4c-4.4-26.6-12.4-57-26-80.4-2.2-4-4-7.7-5.7-11.5a180 180 0 0 0-33.2-54.6c-3-3.4-8.3-10-8.3-10-.4-.3-1.5-1-2.4-1.2-.5-.1-.9-.2-1.1-.1a1 1 0 0 0-1 .8c0 .2 0 .5.2.8 0 .2.3.4.6.8 5 4.3 9 9.4 13.2 14.3 13.6 16.2 24 34.7 30.8 54.6 8.8 27 13.7 55.3 14.7 83.7h2a306 306 0 0 0-13.7-80.6Zm-44.3-60c0-.2-.5-.9-.2-1.1.2-.1.4 0 .5.1v.1c3.6 11.7 8.2 23.5 11 35 4.7 18.9 8.5 38 12.4 57.2a255 255 0 0 1 5.4 51.6c0 .7-.2.9-.6.6a1 1 0 0 1-.3-.8c-.3-14.4-1.7-28.6-4.2-42.8-4-23-8.7-45.8-14-68.4-1-4-4.3-14.5-10-31.5Zm-10.2 143.1h-2.6c.9-8.3 1.3-16.5 1.3-24.8 0-10.2.3-22.4-.5-33.6-.3-3.3-.3-12.7 0-28 0-2.3.3-4.8 1-7.5a83 83 0 0 0 2.3-21c0-.3.2-.4.4-.4.4.3.7.8.6 1.3-1.5 18.3-.9 33.3-1.7 50-1 21.4-.5 42.7-.8 64Zm55.7-133.2-19.5-14-.3-.5.1-.2h.3c6.8 4.5 13.4 9.3 19.6 14.5l.1-.1v.1c8.5 6.4 14.6 12 18.4 16.8a270.3 270.3 0 0 1 53 113.9h-1c-8.3-41.1-26-79.7-51.9-112.8a116.5 116.5 0 0 0-18.8-17.7Zm81.8 115.2c-.5-.2-.8-.6-.9-1.1-1.6-18.3-11-39.7-20.3-55.4-.2-.3-1.5-1.3-.6-1.9.2-.1.5 0 .7.2a183 183 0 0 1 21.6 55.5c.1.6 2.4 4-.6 2.7h.1ZM77.5 233a384 384 0 0 1 23.6-48.2 236.3 236.3 0 0 1 40.6-50.5c1.8-1.6 15.3-14.2 16.4-14 .4 0 .4.3 0 .6-4.8 4.8-11 9.5-15.3 13.6a266.4 266.4 0 0 0-63.9 100 1 1 0 0 1-.7.6c-1.1.2-1.4-.5-.7-2.1Zm11.7-4c.3-.7.5-.7.6-.2 0 .5-1 3.2-1.2 4-.1.2-.3.5-.6.5-1.4.2 1-4 1.2-4.4v.1Zm4.8-16.4c0 .7-.1 1.2-.4 1.3-.3 0-.6-.6-.6-1.3 0-.7.2-1.3.5-1.3s.5.5.5 1.3ZM213.3 126l.7.5c-.5 6-1.3 11.2-2.5 15.8-5 20-9 36.8-5.7 56.7.6 3.7.5 7 .3 10.6 0 .3-.2.6-.5.6-7.3.7-5.9-4.1-5.5-8.9.9-10 3-19.7 4-29.8.4-3.6 1-7 1.7-10.2 3.1-14 5.6-25.7 7.5-35.3Zm112 30.6c-2.9-.8-4-5.5-4-8 0-.4.2-.6.5-.6.4 0 9 10.2 3.5 8.6Zm-26.5-21.4c0-.7-1-2.6-.6-2.8.3-.1.5 0 .7.3.2.6 1.5 5.4.1 3.4l-.2-.9Zm-1.9-3.4c.4.1.1 2.1.9 3 1 1.2-2.2 1-1.6-2.5.1-.3.4-.5.6-.5h.1ZM235 100.2l-.3.5-2.7-1.9a.5.5 0 0 1-.2-.3c-.1-.8 3 1.6 3.2 1.7Z"/>
  <path fill="#2c343e" d="M118.5 274.4C102 253 65 259 57.4 272.2c-2.4 2.5-3.8 1.9-4-1.9-1.2-16.8.7-32.3 5.4-48.7 19.3-68.1 74-121 145-132.1 2.2-.4 5.8-.5 10.8-.4.3 0 .6-.1.6-.3l-.7-11.3c-.1-1.3.3-2.4 1.3-3.1 1.2-1 2.5-1.2 3.8-.7 4.3 1.4 3.1 11.5 3.2 15 0 .3.2.5.5.5 27.3.5 54 8.3 77.3 22.7a191.4 191.4 0 0 1 78 100c6.7 18.8 8.4 38.9 7.4 58.9-.2 3.7-3 4-5.2 1.5-20-22.3-47.8-16.2-66.4 3.6-1 1-2 1.1-3 .2-7.4-6.7-17.4-20-28.4-21.1-11-1-21 3-37.3 15-2 1.5-5.8 4.9-5.8 4.9a2 2 0 0 1-2.6-.2c-3.7-3.6-9.8-9.6-14.8-10.8-.2 0-.4.1-.5.4l.5 89.8v11.7c0 1-.5 1.7-1.2 2a10 10 0 0 1-5.3.2c-1-.2-1.6-1-1.7-2l-.3-11.4v-92.4a1 1 0 0 0-1-.9c-10 1.2-19 6.1-25.6 13.7-1.3 1.5-2.8 1.4-4.6-.3-4.8-4.6-10.7-7.7-16.5-10.9-14.3-7.8-33.6-2.3-45.4 10.6-.6.6-2 .6-2.4 0ZM60 261c19.1-7.2 34.6-9.5 53.3-1.2 2.7 1.2 5.8 4.5 5.8 4.5.2.1.6.2.8 0A55.6 55.6 0 0 1 161 253c9 2 17.4 8.3 23.1 12.7.3.2.6.2.8 0 8.8-6 17.4-11.3 28.3-12h2.6l8.7 1.9 13.4 9.6c.2.2.5.2.8 0 6.3-4 13.4-9.4 20.4-11.5 7.8-2.3 17.2-5 23.9-4.7 5.8.3 11.4 3.5 16.3 6.5 5 3 13.2 11.7 13.2 11.7.2.2.5.2.7 0l9.8-8.2 1-.8h.7a45 45 0 0 1 16.5-6.6c.4 0 .8-.4 1-.6h1c13.8-.7 24.3.6 35.5 9 .2.2.4.1.4-.2-.6-62.1-42.2-125.4-98.1-150.5-13.5-6-29.1-10.4-47-13a51.5 51.5 0 0 0-15.9-1c-5 .1-9.7.7-14.3 1.7a137 137 0 0 0-45.8 14.5C95 141 57 218.1 60 261Z"/>
  <path fill="#ecae35" d="M163.7 264c.3.2.5.5.5.9-.4 9.6-.9 19.3-1.6 29-.7 7-.9 14-.6 21 .3 3.9 4.1 9.6 3.6 13.9-1.2 10.5-17 8.4-15.3-3 .8-5.4 3.1-18.1 7-38.1.2-1.4 0-3.9.6-5.6l.6-2.2c.8-5.3 2.3-10.2 3.4-15.3.2-1 .8-1.2 1.8-.6Zm2.8 39.5c2-12.3 2.7-18.4.7-28.2 0-.6 0-1 .5-1.3.3-.1.5 0 .6.2 4 10.3 5.1 20.4 7.7 30.7 1.8 7.7 2.3 13-7.9 12.3-1.6-.2-2.4-1-2.3-2.7.3-3.6 0-7.3.7-11ZM107.9 98.7c-1.6-.6-2.1-1.7-1.7-3.2l4.1-15.2c.4-1.1.7-1.1 1 0 1 4 9.2 23.6-3.4 18.4Zm213.1-9c3.7 12-10 10-7.7 2.1a108 108 0 0 0 3-12.5c.2-1.3 1.2-1.3 1.6-.1l3 10.5h.1Z"/>
  <path fill="#279787" d="M101 310.3c-2.9-2.2-2.2-5.5-1.4-9.2 1.4-7.4 3.3-14.7 4.8-22 2.4 7.6 4.5 15.3 6.5 23 1.4 6-4.3 12.5-10 8.2h.1Z"/>
  <path fill="#1297a5" d="M345 130.4c0 1.3-.7 2.4-1.5 2.4s-1.5-1.1-1.5-2.5c0-1.3.7-2.4 1.6-2.4.8 0 1.4 1.1 1.4 2.5Z"/>
  <path fill="#c73158" d="M296.6 309.2c3.3 14-16.6 14.3-16.4 2 .2-8.2 3.2-17.8 4.7-26a86 86 0 0 0 1.7-17.7l10 41.7Zm45.4-1.7c2.4 9.3-14.2 10.5-12.5-.3 1.8-8.9 3.8-17.7 6.1-26.5 2 9 4.2 17.9 6.5 26.8h-.1Zm-82.4 4.7c-6.3 5.5-14-.5-12-8.4 2.7-11 5-22.3 7-33.5 1.2 12.6 5.1 24.5 6.9 37 .2 2-.4 3.6-1.9 4.9ZM293.4 48c.3-1.2.6-1.2 1 0l4.6 18c1.6 6.3-6.7 8.3-9.5 4-.9-1.3-1.1-2.9-.6-4.8l4.5-17.3v.1ZM235 20.8c.2-.7.4-.7.6 0l5.7 22c.5 1.8.4 3.5 0 5-1 2.8-3 4-5.8 3.5-5.1-1-6.4-5.2-5.3-9.9l4.8-20.6Z"/>
</svg>
