<svg xmlns="http://www.w3.org/2000/svg" xml:space="preserve" viewBox="0 0 440 440">
  <path fill="#ecae35" d="m208.8 91.6 12-1.1c1.9 8.3 2.6 15.3 2.8 16.7 1 8.4 3 21.6 2.8 24.2 1 10.2.8 20.4 0 34.4 1.1 24.6.5 49.2-.4 74 0 0-28.7 3.8-36.9 9.4h-.7c-31.7-11.9-59.4-.3-59.6-.3l-6.2-5.2a216 216 0 0 1 9.7-47.7c11.1-35.2 31.3-75.7 63.2-96.5 4.9-3.3 7.4-6 13.3-7.9Z"/>
  <path fill="#279787" d="M296.1 240.1s-29.9-2.1-37.1 0c-6.6 1.9-20.3 10.8-20.5 10.6l-12.5-11c1-24.6.9-49.2-.3-74a375 375 0 0 0-.4-42.2c-1.2-11-3-22-5.3-32.7a45 45 0 0 1 14.9.9h-.1c-1.8.7-3.5.8-5.4 0-.2 0-.5 0-.6.4-.1.6 33.9 38.4 38.5 55 18.6 16.8 32.3 70.7 28.8 93Z"/>
  <path fill="#1297a5" d="M234.8 91.7c22.3 1.6 40.9 8 54.8 15.5 74.4 48.3 79.6 109.7 79.6 137.6-25.4-10.7-39.2-12.8-61 7.4l-12.8-12.5c.4-.6 0-.8 0-1.2-4.1-24.7-11.4-52.7-24-74.5a97.3 97.3 0 0 1-5.4-10.8 167.5 167.5 0 0 0-30.7-50.4l-7.7-9.3c.6-.4 1-.9 1.2-1.4.1-.3.4-.4.6-.3a7 7 0 0 0 5.5-.2h-.1Z"/>
  <path fill="#c73158" d="m206.7 92.3-.4 1c0 .2-.9.8-1.3.9a54 54 0 0 0-9.5 5.3c-32 20.8-52 61.3-63.2 96.5a222 222 0 0 0-9.7 47.7c-2.3-1.5-37-6.8-48.6 2-.2.2-3-3.4-2.8-5.6a169.1 169.1 0 0 1 92-137.5c13.2-7 27.4-8 43.5-10.3Z"/>
  <path fill="#eee" opacity="0.5" d="M210.5 134.2c.1-.4.3-.7.7-1 .3-.1.3 0 .3.3-8 25.1-15 50.8-20.8 76.5-2 9.6-3.7 22.1-6.1 33.1 0 .3-.3.5-.6.5-1.5 0 1.2-7.7 1.3-8.9a606.4 606.4 0 0 1 25.1-100.6h.1Zm25.2-38.9c21.6 13.1 34.6 30 47.2 51.4A308.6 308.6 0 0 1 319 243l-.7 1.4c-7.5-41-24.3-81.4-48-115.8a116.2 116.2 0 0 0-34.9-32.8l.3-.5ZM114.2 241v.9l2.3-.3v-.6c.4-18.2 3.7-36.3 9.5-53.5a158.2 158.2 0 0 1 32.3-58.5v-.2c.3-.4.2-.7 0-.8 0-.2-.3-.4-.8-.4h-.2l-.2.2a134.2 134.2 0 0 0-27.7 43.7 231 231 0 0 0-15.2 69.5Zm64.8-55.7c8.4-35.3 26-72.5 36-92.7l-.1-.4c-.7-.2-4.7 2.3-6 2.6l-.8.3c-8.6 8-16.6 16.6-23.7 25.9a303.3 303.3 0 0 0-20.8 33.8 189.6 189.6 0 0 0-15.3 38.1c-2.8 9.3-4.8 20.2-7 30.3-.3 1.7-.8 3.3-1.6 4.9h-.5a154 154 0 0 1 3.7-19.7l5-17.3a247.8 247.8 0 0 1 34-68.7c6-9 11.7-14.6 22.2-25.1.2-.1.2-.5 0-.6a1 1 0 0 0-1.4 0 14.9 14.9 0 0 1-7.2 2.8 63 63 0 0 1 10.2-5.6c.4-.2.6-.4.6-.6l.3-1c4.4-.9 8.9-1.4 13.4-1.5 2.3 10.8 4 21.7 5.3 32.7 1 10.8 1 24.9.4 42.3-1-11.4-1.1-22.7-.7-34.1.2-2.5-.7-4.3-1.8-6.5a1 1 0 0 1-.2-.8 42 42 0 0 0-1.1-16c-.4-1.4-.5-2.8-.6-4.2 0-.2-.2-.6-.5-.7a2 2 0 0 0-2.3 0c-.2 0-.3.3-.3.7l-2 15.6-.7-.5c.8-7.4 1.7-14.9 3-22.3v-5.3c0-.4-.2-.4-.4-.2-6.5 7-44.7 100.3-47.4 147.2 0 .7-2.1 3.3-2-.4.7-14.9 7-39 10.3-53Zm89.5-24.5 2 3.7c12.6 21.6 20.3 51.2 24.4 75.7l1.8 1.1c-4.1-24.7-11.9-56-24.5-77.8a142 142 0 0 1-5.3-10.6A167.3 167.3 0 0 0 236 102c-2.8-3.2-7.7-9.3-7.7-9.3-.4-.3-1.4-1-2.3-1.1-.4-.1-.8-.2-1-.1a1 1 0 0 0-.9.7c0 .2 0 .5.2.8 0 .2.3.4.5.7 4.7 4 8.4 8.8 12.3 13.3 12.7 15 22.3 32.3 28.6 50.8a283.8 283.8 0 0 1 13.7 77.8h1.9a289 289 0 0 0-12.8-75ZM227.3 105c0-.2-.4-.9-.1-1 .2-.1.3 0 .4 0v.1c3.4 11 7.7 21.9 10.3 32.6 4.3 17.5 7.9 35.3 11.5 53.1a237 237 0 0 1 5 48c0 .7-.2.8-.6.6a1 1 0 0 1-.2-.8c-.3-13.4-1.6-26.6-4-39.8-3.7-21.3-8-42.5-13-63.5a505 505 0 0 0-9.3-29.3ZM218 238h-2.4c.8-7.7 1.2-15.3 1.2-23 0-9.5.2-20.9-.5-31.3-.3-3-.3-11.8 0-26 0-2.2.3-4.5 1-7 1.5-6.4 2.2-13 2-19.5 0-.3.2-.4.4-.4.4.3.7.8.6 1.2-1.4 17-.8 31-1.6 46.5-1 19.9-.5 39.7-.7 59.5Zm51.7-123.8-18-13-.4-.5.1-.2h.3a204 204 0 0 1 18.2 13.5h.1c8 6 13.6 11.2 17.1 15.6 24.5 31 41.2 68.3 49.1 107l-.7.4a256.4 256.4 0 0 0-48.3-106.4 109 109 0 0 0-17.5-16.4Zm76 107c-.4-.1-.7-.5-.8-1-1.4-17-10.2-36.9-18.8-51.5-.2-.2-1.4-1.2-.6-1.7.2-.1.5 0 .7.2 9.4 16 16.2 33.4 20 51.6.1.5 2.3 3.7-.5 2.5Zm-256.3-2.4a357 357 0 0 1 22-44.8c10.3-17.4 23-33.1 37.7-47 1.7-1.5 14.2-13.2 15.2-13 .4 0 .4.3 0 .6-4.4 4.4-10.2 8.8-14.2 12.6a247.6 247.6 0 0 0-59.4 93 1 1 0 0 1-.6.5c-1 .2-1.3-.5-.7-2Zm10.9-3.8c.3-.6.5-.6.5-.1 0 .4-.9 3-1 3.7-.2.2-.3.4-.6.4-1.3.2.9-3.7 1-4Zm4.5-15.2c0 .6-.1 1.1-.4 1.2-.3 0-.6-.6-.6-1.2 0-.7.2-1.2.5-1.2s.5.5.5 1.2Zm110.8-80.5.7.5a87 87 0 0 1-2.3 14.6c-4.7 18.6-8.4 34.3-5.3 52.8.5 3.4.4 6.5.3 9.8 0 .3-.2.6-.5.6-6.8.6-5.5-3.8-5.1-8.3.8-9.3 2.8-18.3 3.7-27.7.4-3.4 1-6.5 1.6-9.5 2.9-13 5.2-23.9 7-32.8Zm104.2 28.4c-2.7-.7-3.8-5-3.8-7.4 0-.4.2-.6.5-.6.4 0 8.4 9.5 3.3 8ZM295 127.8c0-.6-1-2.4-.5-2.6.2 0 .4 0 .6.3.2.6 1.4 5 .1 3.2l-.2-.9Zm-1.7-3.1c.3 0 0 2 .8 2.8 1 1-2 1-1.5-2.3.1-.3.4-.5.6-.5Zm-57.6-29.4-.3.5L233 94l-.2-.3c0-.7 2.8 1.5 3 1.6Z"/>
  <path fill="#2c343e" d="M127.4 257.2c-15.3-19.9-43.2-17.3-51-5.5-3.4 5.3-5.4 4.3-6.9-.9-2-7-1-23 2.4-42.6 18-63.3 68.8-112.5 134.8-122.8 2-.4 5.4-.5 10-.4.3 0 .6-.1.6-.3l-.6-10.5c-.1-1.2.2-2.2 1.2-2.9 1-.9 2.3-1 3.5-.6 4 1.3 2.9 10.7 3 14 0 .2.2.4.4.4 25.4.5 50.2 7.7 71.9 21 34.3 23.9 54.2 51 65.4 85.1 5 15.3 8.1 29 8.1 50-.4 6.5-.3 7.6-8.2 3.8-24-10-35.2-4.8-52.5 13.6-1 1-1.8 1-2.8.2-6.8-6.2-16.1-18.6-26.4-19.6-10.2-1-19.5 2.8-34.6 14a71.2 71.2 0 0 0-5.4 4.5c-.8.5-1.8.5-2.4-.2-3.5-3.3-9.2-8.9-13.8-10-.2 0-.4 0-.5.4l.5 83.4v10.9c0 1-.5 1.6-1.1 1.9-1.6.5-3.3.5-5 .1-.9-.1-1.4-.9-1.5-1.8l-.3-10.6v-85.9a1 1 0 0 0-1-.8 37.3 37.3 0 0 0-23.7 12.7c-1.2 1.4-2.6 1.3-4.3-.3-4.5-4.3-10-7.1-15.3-10.1-13.3-7.3-31.3-2.2-42.2 9.8-.6.6-1.9.6-2.3 0ZM74 245c13.9-8.9 31.3-9 48.7-1.2 2.5 1 5.4 4.2 5.4 4.2h.7a51.7 51.7 0 0 1 38.2-10.6 58.8 58.8 0 0 1 21.5 11.9h.7a52.4 52.4 0 0 1 26.4-11.2h2.4l8 1.8 12.5 8.9c.2.2.5.2.8 0 5.8-3.7 12.4-8.7 19-10.7 7.2-2.1 16-4.6 22.1-4.4a34 34 0 0 1 15.2 6 84.9 84.9 0 0 1 12.3 11h.6s7.1-6.5 10.6-8.4c4.7-2.5 12-6.7 18.2-7 7.7-.3 24.1 2.1 28.4 5-1.6-57-35.2-113-87.1-136.4a166 166 0 0 0-43.7-12.1 82 82 0 0 0-28.1.6c-14.9 2-29.3 6.6-42.6 13.5C105.6 133.2 70.5 203.1 74 245Z"/>
  <path fill="#ecae35" d="M170.1 285.5c4.4-10.8 6.2-16.2 5.3-25.6.1-.6.2-1 .8-1.1.4 0 .7 0 .8.3 3.2 10.3 3 19.7 4.5 29.7 1 7.5-1.6 13.8-10.2 9.5-3.7-1.9-2.6-9.5-1.2-12.8Zm-73.9-14.4c3.5 11.1-9.2 9.3-7.1 2 1.2-3.9 2-7.8 2.8-11.7.2-1.2 1.1-1.2 1.5 0l2.8 9.7Zm250.9-2c-1.5-.6-2-1.7-1.6-3l3.8-14.2c.4-1 .7-1 1 0 .9 3.7 8.5 22-3.2 17.1Z"/>
  <path fill="#279787" d="M111.2 290.6c-2.7-2-2-5.1-1.3-8.5 1.3-7 3-13.7 4.4-20.5a375 375 0 0 1 6 21.4c1.4 5.6-4 11.6-9.2 7.6Z"/>
  <path fill="#1297a5" d="M293 289.6c3 13-15.5 13.3-15.3 1.8.2-7.6 3-16.5 4.4-24.1 1-5.4 1.6-11 1.6-16.5l9.3 38.8Z"/>
  <path fill="#c73158" d="M335.2 288c2.2 8.7-13.2 9.8-11.6-.3 1.6-8.2 3.5-16.4 5.6-24.6 1.9 8.4 4 16.6 6 25Zm-76.6 4.4c-5.9 5-13-.5-11.2-7.8 2.5-10.3 4.7-20.8 6.5-31.2 1.2 11.7 4.8 22.8 6.4 34.4a5 5 0 0 1-1.7 4.6Zm-106.4-32.5c.2-.6.4-.6.6 0l5.3 20.5c.4 1.6.3 3.2 0 4.6-1 2.6-2.8 3.7-5.4 3.3-4.8-1-6-4.9-5-9.2l4.5-19.2Z"/>
</svg>
